<svg xmlns="http://www.w3.org/2000/svg" viewBox="35 0 760 90">
  <defs>
    <linearGradient id="blueGradient" x1="0%" y1="0%" x2="100%" y2="100%">
      <stop offset="0%" style="stop-color:#4169E1"/>
      <stop offset="100%" style="stop-color:#1E90FF"/>
    </linearGradient>
  </defs>
  
  <!-- REAL -->
  <g transform="translate(50, 20)" stroke-linejoin="miter">
    <!-- R -->
    <path d="M 0,0 L 0,60 M 0,0 L 32,0 C 41,0 41,7 41,15 L 41,20 C 41,28 41,30 32,30 L 0,30 M 32,34 C 41,44 41,60 41,60" 
          stroke="url(#blueGradient)" 
          stroke-width="11"
          fill="none"
          stroke-linecap="square" 
          stroke-linejoin="miter"/>
    
    <!-- E -->
    <path d="M 68,0 L 68,60 M 68,0 L 108,0 M 68,30 L 98,30 M 68,60 L 108,60" 
          stroke="url(#blueGradient)" 
          stroke-width="11"
          fill="none"
          stroke-linecap="square"
          stroke-linejoin="miter"/>
    
    <!-- A -->
    <path d="M 133,60 L 133,30 L 156,0 L 179,30 L 179,60" 
          stroke="url(#blueGradient)" 
          stroke-width="11"
          fill="none"
          stroke-linecap="square"
          stroke-linejoin="miter"/>
    
    <!-- L -->
    <path d="M 204,0 L 204,60 L 244,60" 
          stroke="url(#blueGradient)" 
          stroke-width="11"
          fill="none"
          stroke-linecap="square"
          stroke-linejoin="miter"/>

    <!-- evolution text after REAL -->
    <text x="280" y="65" 
          stroke="url(#blueGradient)" 
          stroke-width="2"
          fill="none"
          style="font-family: Helvetica Neue; font-size: 95px;">evolution</text>
  </g>
</svg>