<svg xmlns="http://www.w3.org/2000/svg" viewBox="0 0 1000 100">
  <defs>
    <linearGradient id="blueGradient" x1="0%" y1="0%" x2="100%" y2="100%">
      <stop offset="0%" style="stop-color:#4169E1"/>
      <stop offset="100%" style="stop-color:#1E90FF"/>
    </linearGradient>
  </defs>
  
  <!-- REAL -->
  <g transform="translate(50, 20)" stroke-linejoin="round">
    <!-- R - starts at x=0 -->
    <path d="M 0,0 L 0,60 M 0,0 L 32,0 C 38,0 41,7 41,15 L 41,20 C 41,28 38,30 32,30 L 0,30 M 32,30 L 43,60" 
          stroke="url(#blueGradient)" 
          stroke-width="6"
          fill="none"
          stroke-linecap="round" 
          stroke-linejoin="round"/>
    
    <!-- E -->
    <path d="M 68,0 L 68,60 M 68,0 L 108,0 M 68,30 L 98,30 M 68,60 L 108,60" 
          stroke="url(#blueGradient)" 
          stroke-width="6"
          fill="none"
          stroke-linecap="round"
          stroke-linejoin="round"/>
    
    <!-- A -->
    <path d="M 133,60 L 133,30 L 156,0 L 179,30 L 179,60" 
          stroke="url(#blueGradient)" 
          stroke-width="6"
          fill="none"
          stroke-linecap="round"
          stroke-linejoin="round"/>
    
    <!-- L - ends with horizontal stroke to x=244 -->
    <path d="M 204,0 L 204,60 L 244,60" 
          stroke="url(#blueGradient)" 
          stroke-width="6"
          fill="none"
          stroke-linecap="round"
          stroke-linejoin="round"/>
  </g>

  <!-- EVOLUTION - shifted left by 30 units (0.75 character width) -->
  <g transform="translate(364, 20)" stroke-linejoin="round">
    <!-- E -->
    <path d="M 0,0 L 0,60 M 0,0 L 40,0 M 0,30 L 30,30 M 0,60 L 40,60" 
          stroke="url(#blueGradient)" 
          stroke-width="6"
          fill="none"
          stroke-linecap="round"/>
    
    <!-- V -->
    <path d="M 65,0 L 90,60 L 115,0" 
          stroke="url(#blueGradient)" 
          stroke-width="6"
          fill="none"
          stroke-linecap="round"/>
    
    <!-- O -->
    <path d="M 140,0 L 140,60 L 180,60 L 180,0 Z" 
          stroke="url(#blueGradient)" 
          stroke-width="6"
          fill="none"
          stroke-linecap="round"/>
    
    <!-- L -->
    <path d="M 205,0 L 205,60 L 245,60" 
          stroke="url(#blueGradient)" 
          stroke-width="6"
          fill="none"
          stroke-linecap="round"/>
    
    <!-- U -->
    <path d="M 270,0 L 270,60 L 310,60 L 310,0" 
          stroke="url(#blueGradient)" 
          stroke-width="6"
          fill="none"
          stroke-linecap="round"/>
    
    <!-- T -->
    <path d="M 335,0 L 395,0 M 365,0 L 365,60" 
          stroke="url(#blueGradient)" 
          stroke-width="6"
          fill="none"
          stroke-linecap="round"/>
    
    <!-- I -->
    <path d="M 420,0 L 420.1,60" 
          stroke="url(#blueGradient)" 
          stroke-width="6"
          fill="none"
          stroke-linecap="round"/>
    
    <!-- O -->
    <path d="M 445,0 L 445,60 L 485,60 L 485,0 Z" 
          stroke="url(#blueGradient)" 
          stroke-width="6"
          fill="none"
          stroke-linecap="round"/>
    
    <!-- N -->
    <path d="M 510,0 L 510,60 M 510,0 L 550,60 M 550,0 L 550,60" 
          stroke="url(#blueGradient)" 
          stroke-width="6"
          fill="none"
          stroke-linecap="round"/>
  </g>
</svg>